<mxfile host="65bd71144e">
    <diagram id="LkOLhtlD8wp5TjMrqrVK" name="Page-1">
        <mxGraphModel dx="929" dy="522" grid="0" gridSize="10" guides="1" tooltips="1" connect="1" arrows="1" fold="1" page="1" pageScale="1" pageWidth="827" pageHeight="1169" background="#ffffff" math="0" shadow="0">
            <root>
                <mxCell id="0"/>
                <mxCell id="1" parent="0"/>
                <mxCell id="7" value="B" style="rounded=0;whiteSpace=wrap;html=1;strokeColor=#000000;fontColor=#000000;fillColor=none;" vertex="1" parent="1">
                    <mxGeometry x="126" y="103" width="76" height="26" as="geometry"/>
                </mxCell>
                <mxCell id="8" value="B类虚函数表vtable" style="swimlane;fontStyle=0;childLayout=stackLayout;horizontal=1;startSize=30;horizontalStack=0;resizeParent=1;resizeParentMax=0;resizeLast=0;collapsible=1;marginBottom=0;whiteSpace=wrap;html=1;strokeColor=#000000;fontColor=#000000;fillColor=none;swimlaneFillColor=none;" vertex="1" parent="1">
                    <mxGeometry x="253" y="118" width="140" height="120" as="geometry"/>
                </mxCell>
                <mxCell id="9" value="B::Func1()" style="text;strokeColor=none;fillColor=none;align=left;verticalAlign=middle;spacingLeft=4;spacingRight=4;overflow=hidden;points=[[0,0.5],[1,0.5]];portConstraint=eastwest;rotatable=0;whiteSpace=wrap;html=1;fontColor=#000000;rounded=0;" vertex="1" parent="8">
                    <mxGeometry y="30" width="140" height="30" as="geometry"/>
                </mxCell>
                <mxCell id="10" value="B::Func2()" style="text;strokeColor=none;fillColor=none;align=left;verticalAlign=middle;spacingLeft=4;spacingRight=4;overflow=hidden;points=[[0,0.5],[1,0.5]];portConstraint=eastwest;rotatable=0;whiteSpace=wrap;html=1;fontColor=#000000;" vertex="1" parent="8">
                    <mxGeometry y="60" width="140" height="30" as="geometry"/>
                </mxCell>
                <mxCell id="11" value="B::~B()" style="text;strokeColor=none;fillColor=none;align=left;verticalAlign=middle;spacingLeft=4;spacingRight=4;overflow=hidden;points=[[0,0.5],[1,0.5]];portConstraint=eastwest;rotatable=0;whiteSpace=wrap;html=1;fontColor=#000000;" vertex="1" parent="8">
                    <mxGeometry y="90" width="140" height="30" as="geometry"/>
                </mxCell>
                <mxCell id="14" style="edgeStyle=none;html=1;exitX=1;exitY=0.5;exitDx=0;exitDy=0;entryX=0;entryY=0.25;entryDx=0;entryDy=0;fontColor=#000000;strokeColor=#000000;" edge="1" parent="1" source="13" target="8">
                    <mxGeometry relative="1" as="geometry"/>
                </mxCell>
                <mxCell id="13" value="B::__vfptr" style="rounded=0;whiteSpace=wrap;html=1;strokeColor=#000000;fontColor=#000000;fillColor=none;" vertex="1" parent="1">
                    <mxGeometry x="126" y="129" width="76" height="38" as="geometry"/>
                </mxCell>
                <mxCell id="22" style="edgeStyle=none;html=1;exitX=0.5;exitY=0;exitDx=0;exitDy=0;entryX=0.5;entryY=1;entryDx=0;entryDy=0;strokeColor=#000000;fontColor=#000000;" edge="1" parent="1" source="15" target="13">
                    <mxGeometry relative="1" as="geometry"/>
                </mxCell>
                <mxCell id="15" value="C" style="rounded=0;whiteSpace=wrap;html=1;strokeColor=#000000;fontColor=#000000;fillColor=none;" vertex="1" parent="1">
                    <mxGeometry x="126" y="264" width="76" height="26" as="geometry"/>
                </mxCell>
                <mxCell id="21" style="edgeStyle=none;html=1;exitX=1;exitY=0.5;exitDx=0;exitDy=0;strokeColor=#000000;fontColor=#000000;entryX=0;entryY=0.25;entryDx=0;entryDy=0;" edge="1" parent="1" source="16" target="17">
                    <mxGeometry relative="1" as="geometry"/>
                </mxCell>
                <mxCell id="16" value="C::__vfptr" style="rounded=0;whiteSpace=wrap;html=1;strokeColor=#000000;fontColor=#000000;fillColor=none;" vertex="1" parent="1">
                    <mxGeometry x="126" y="290" width="76" height="38" as="geometry"/>
                </mxCell>
                <mxCell id="17" value="C类虚函数表vtable" style="swimlane;fontStyle=0;childLayout=stackLayout;horizontal=1;startSize=30;horizontalStack=0;resizeParent=1;resizeParentMax=0;resizeLast=0;collapsible=1;marginBottom=0;whiteSpace=wrap;html=1;strokeColor=#000000;fontColor=#000000;fillColor=none;" vertex="1" parent="1">
                    <mxGeometry x="256" y="279" width="140" height="120" as="geometry"/>
                </mxCell>
                <mxCell id="18" value="B::Func1()" style="text;strokeColor=none;fillColor=none;align=left;verticalAlign=middle;spacingLeft=4;spacingRight=4;overflow=hidden;points=[[0,0.5],[1,0.5]];portConstraint=eastwest;rotatable=0;whiteSpace=wrap;html=1;fontColor=#000000;" vertex="1" parent="17">
                    <mxGeometry y="30" width="140" height="30" as="geometry"/>
                </mxCell>
                <mxCell id="19" value="C::Func2()" style="text;strokeColor=none;fillColor=none;align=left;verticalAlign=middle;spacingLeft=4;spacingRight=4;overflow=hidden;points=[[0,0.5],[1,0.5]];portConstraint=eastwest;rotatable=0;whiteSpace=wrap;html=1;fontColor=#000000;" vertex="1" parent="17">
                    <mxGeometry y="60" width="140" height="30" as="geometry"/>
                </mxCell>
                <mxCell id="20" value="C::~C()" style="text;strokeColor=none;fillColor=none;align=left;verticalAlign=middle;spacingLeft=4;spacingRight=4;overflow=hidden;points=[[0,0.5],[1,0.5]];portConstraint=eastwest;rotatable=0;whiteSpace=wrap;html=1;fontColor=#000000;" vertex="1" parent="17">
                    <mxGeometry y="90" width="140" height="30" as="geometry"/>
                </mxCell>
                <mxCell id="23" style="edgeStyle=none;html=1;exitX=1;exitY=0.5;exitDx=0;exitDy=0;entryX=1;entryY=0.5;entryDx=0;entryDy=0;strokeColor=#000000;fontColor=#000000;" edge="1" parent="1" source="18" target="9">
                    <mxGeometry relative="1" as="geometry">
                        <Array as="points">
                            <mxPoint x="413" y="316"/>
                            <mxPoint x="423" y="303"/>
                            <mxPoint x="436" y="273"/>
                            <mxPoint x="438" y="243"/>
                            <mxPoint x="436" y="215"/>
                            <mxPoint x="426" y="189"/>
                            <mxPoint x="413" y="175"/>
                        </Array>
                    </mxGeometry>
                </mxCell>
                <mxCell id="24" value="" style="shape=image;imageAspect=0;aspect=fixed;verticalLabelPosition=bottom;verticalAlign=top;rounded=0;strokeColor=default;fontColor=#000000;fillColor=none;image=data:image/png,iVBORw0KGgoAAAANSUhEUgAAAcoAAAMBCAYAAABvLPSCAAAAAXNSR0IArs4c6QAAAARnQU1BAACxjwv8YQUAAAAJcEhZcwAAGdYAABnWARjRyu0AAGklSURBVHhe7d17lFXVneh7O4o8jOmbMdLH0SMjt/PqdBKPN+mk+xCToN2erui5kT6JI/bNiemYmJg2TXxQRIJBQYnBV3hIfJQBqzVgFUVRhYAQsRTwCWXkERRFKSPyFJFSEap4aH53/+auuWvtVbN2vfbctdbc3z8+sdhrr7WL7rHWlznXYx/3N3/zNwIAANwIJQAABRBKAAAKIJQAABRAKAEAKIBQAgBQAKEEAKAAQgkAQAGEEgCAAgglAAAFEEoAAAoglAAAFEAoAQAogFACAFAAoQQAoABCCQBAAYQSAIACCCUAAAUQSgAACiCUAAAUQCgBACiAUAIAUAChBACgAEIJAEABhBIAgAIIJQAABRBKAAAKIJQJ9vGPf1w+/elPAyiBT3ziE879ECCUCaFRPO200+TLX/6ynHXWWQAG0Ve/+lX5/Oc/L5/85Ced+yvKC6EcZJ/61KfkS1/6Um4HPfvss2Xs2LHGXXfdJdXV1QBKZPz48WbfO++883L75BlnnCGnnnqqc/9FeSCUg0SneUaOHJnbGa+77jppamqSt998Xd7cs1lad/9R9u9cJ3tffqTDyohV+f6kVhuv/+nRrFfUY/m2PSb7jMcjnoh4Ut5Qr8Y9JW9st9Z0WJu1o9P+Hc0RT0f8IfN3+YO05nlGWnepdTlv7lovb+6O2xCxscMfs/bke2vPJnnrNfVsxHPy1t7n5O08myOeNw7sfUEOvB63JWuferHDS1lv5Hvnja0dWiJelnf2d3Ww9U8Rr3R6U23r4tCbr0Zsl0NvqR353lY7I3bJoQO7pO3A7m7sMdoPvJb1jtqb7+BeOXzw9Yh9cviQesNhf0SrHG7LOtL2Zqd26y3jaPvbWYfVgS6OGe90OnIw4lDW0bg2OXYs691j7R0Od/HesSNZ76qjxrvq2NHMukcyjsozzzwj06ZNk3PPPdfsozrK1Cla1/6MsBHKQfDZz342F8iJEyfKjh2vyv7dm2T3i8vl1T/WyPY/1sr2TWp+RJ1sfzZrx7MLOtRnPacWGjufa8jarBojFsnO5xfJLuP+Ti8sjlgiu9UWtTTigczvlrXnxWUdlme9pH5vvPbSg1lb1YqIh+S1lodkb0tTxMOZyCv7D4FH5PXMPwJe/5O1qoPGP+OV1bIvE/+sTOxVLPpvZGL/xquqa+T3Z+LeSaNuZcPemgl6604rEvOOoL9pQt4R81zQOyP+Vibgb+1RGmzLhjs/3t1G+3WVCbfxQta+TLBNqCPBfkPFIr1fZeKck4lyqyPKJsadQc4F+C0Vi3Amvm2Z6HbS8ObHt11j+46yse0Ibiay+aG1ke0M7ZFMVI02pVG1skE9amhQO5igdobVhPSI0ohamYgezXo3E86sTDRVJJ7vmVhmvKtsMDui+d5R+fN7xzI/Z7311ltmdkdne3Sf1SlZ136NcBHKEvvc5z5ndrbRo0ebf7G+9fpLJmQaSItQEkpCOfih7PRuZrR5THbu3CkXX3yx2X91NuijH/2ocx9HeAhlCdlIXnjhhbJj+yuZOKySVzfel4mjIpSEklAmNZR//vO7mdffk0OHDplZIN2P9doC136O8BDKErHTrRrJN17fZcL06sZ5hJJQdiKUiQ7ln//8nqHnL/WaAt2fv/CFLzj3d4SFUJaAXmKuO5VOt+pIUqOVjSShJJSEMm2hVG1tbfKjH/3I7Nef+cxnnPs9wkEoS8Be3arnJF/LxKEzkoSSUBLKNIbyz++9J7t27RK9jeT000+Xk046ybnvIwyE0jO9T1Ijqec1Wvc8K9s2ziWUhDKCUKYxlJn/Mecs6+rqzP79kY98RI477jg5+eSTnccBpBuh9EzvvdLLyl/bs9uEjFASSkJZ+lAeOdxmpkvb29szy4oTysz/mG3qqFIfSvC+973PxHLo0KHOYwHSi1B6pA8V0H9t3nDDDbI/c8DdtmEuoSSUkUgSSt+h1IcSHG7PBDITNI1aNpZtmdc7YjnAUEZHlaeccooJpTrhhBOcxwSkE6H0yN4O8tRTT2Ui1kAoCSWhLGEoNZJHDh8yYXzhhRfksccekyeffFL27dvXGcsBhlLt3bvX7Od6UY8NpRoyZIjzuID0IZQe6bSrXun6duueTCR/RygJJaEsYSiPHmmTd955R3bs2CFz586Vq666SiZPnixPP/10NpaZ0eUxPV85wFC+++67MmbMGDnzzDNz06/W8OHDnccGpAuh9Ej/lakPWd6/ayOhJJSEsoShPHw4ez5SR3tz5swxt3LotQJf//rXTSyfeOIJs1y9m3vma/9CqdOv+og73d9HjBiRF0rlOjYgXQilJ/q1Wbrj6PnJN7Y3DyyUD/5YzoztfF384DpCSSgJZSaUJpKZ0eKLL74o9957r4nkj3/8Y7n88svlsssuk+9973ty/fXXy6pVq8yTdg6bC3zsFGzfQ/nnzM/2POUHP/jBLvvm8ccf7zxGID0IpSf2IQP6L039Vg/voTT+Xm55iFASyvIM5dHD75irW3WUqJGcN2+e/OQnPzFPw5o5c6YsWbJEGhoaTDA1nr/85S+lublZXn/99ew5SxPL/oVy2bJlZn//67/+a8d+eZx84AMfcB4nkA6E0hP9Oh7dcfRfmnteWlGiUGb8YAqhJJRlF8qjGYfbD5pzkjrdqiNJjeS3vvUtufnmm80Fda+99po5X1lTU2NGlt/+9rflmmuuMecsW1tbMyPRzMhSp2H7EUp9mEihUDKqTDdC6YkNpf5Ls7ih/JzcsiJyjnLFJfkR/cpPZC2hJJRlFsrD7dmrWzWE9pykjiQ1klu2bJHly5fLHXfcIb/97W/l+eefl0WLFskVV1xhvmtSn9v66KOPmpGoxvLdd48UPZTKdZxAOhBKT0oWyowFP4jskIwoCWWZhfKw3gLSlr0FRK9uteckdbpVR5IaSY2hnpv84Q9/KL/73e9k5cqVcv/995urVX/wgx/Ir371K1m9erW8/fbbme0dNiPLYofyL//yL53HCiQfofRkcEaUnKMklOUXSvsgAb1P8pprrpELLrhAZsyYIQ899JC5b1Jfu+iii8xU63e+8x0TRw3qmjVrpL6+3pyzvPTSS2X27Nmyf/9+s60jmZFlsUM5bNgw57ECyUcoPfEXyu78qyzgqldCWYah1ClXjZtGcdq0acb69evNLSC/+MUv5F//9V/NNKu+fuONN8r5559vvoC5urranJucP3++WXbPPfeYP+sUrI9Q8gCC9CKUnpQ+lMfJf1QTSkJZfqHUq13b2w+Zhwi88sorxtKlS839khrFyspKsx/q63o1rEZRp2B1ivbuu+82kdNlen7z4MGDcsQ8scdGsnih5IKe9CKUngxGKA3OURLKMgulXszT3nbIjCr1Vg+9P/Laa681IRw7dqw88MADsm3bNrNcr4rVqN16661mVKlTsjoNqxf46HKVf36yeKFUrmMFko9QelK6i3nulFu+Et0ZO85TEkpCWS4jyiMHzfSr3hai069XX321ueJ13Lhx5r5Jjac+VEDfo1e16tSq3hIyffp0c/uInrPUC3x0VKkjyqNH9cEDhBKdCKUnpQtlxkP5t4icOeVOQkkoy/JiHj0nec4555gLdBYvXmyevKPLjh7RR9XpQwWywdTX9baRqVOnmulZHVnqbSX2Yp6jRw4TSuQQSk8IJaEklKUP5ZQpU+RnP/uZ2e/0nKNGUb9B5Fjki5s1ljqy1At39JYSvUJWR6G+r3pVrmMFko9QejJ4U6/HySXVTL0SyvIJpXnYQCZuL730kqxYscJ49dVXOyKZiWMmjPrlzTaUJpaZEabGUqOo07C6jl4lq/dR6tSsj/soletYgeQjlJ4M2sU8PJmHUJZZKM3FPO0Hpa1jmtXKRvJQNpKxUOqXNpuRZSaK0XX0z76ezKNcxwokH6H0ZHBCyQMHCGV5htJ8a4jGMhfJgx2R7D6URiaKOvLMRfJY/x6KTijDRig9KXko+ZotQlnWoczGUs9HHjlySI4e7W0oD2f+fMR8c0j2eykJJboilJ4UNZQGX9xMKAll4VBmY6lf3Kx6G8rOL20mlHAjlJ4QSkJJKAllnOtYgeQjlJ4QSkJJKAllnOtYgeQjlJ4QSkJJKAllnOtYgeQjlJ4QSkJJKAllnOtYgeQjlJ4QSkJJKAllnOtYgeQjlJ4QSkJJKAllnOtYgeQjlJ4QSkJJKAllnOtYgeQjlJ4QSkJJKAllnOtYgeQjlJ4QSkJJKAllnOtYgeQjlJ6UOpS6ExJKQkkoCSWKj1B64iuUw4YOlaEnDpX3jzipx1AOHzbMvJ9QEkpCSSjRf4TSE1+hPGn4CBlywgly/PHHy4hhw52hjL5HfyaUhJJQEkr0H6H0xPfUq44UuwulHXUy9UooCSWhxMARSk84R0koCSWhjHMdK5B8hNITH6F07Xh9QSgJJaEklOg7QumJj1Dq+cY4nWZVuhO6lkcRSkJJKAkl+o5QelKKqVcN5PChw3JTr3qVq5631CtimXollISSUKI4CKUnPkOpMRxywgldLubRC3jsDnnikCGRaBJKQkkoCSX6i1B6UuxQavB09Ki3fAw98cSC91HqNKuONvW9+roGVKNJKAkloSSU6DtC6UmxQ5m95eNEE0HXVa8aSddVr/p+DaWuTygJJaEklOg7QulJKc5RRkOpU7HcHkIoCSWhRPERSk+KHUrXTtdXhJJQEkpCib4jlJ4UO5T2Fo84vdLV7oR6DtP1HotQEkpCSSjRd4TSk1JNverVrTrtqhfrmGe7jsgEkalXQkkoCSWKhlB6UopQRh80oOcn7ZWuZvRIKAkloSSUKApC6YnPUNr7KHXHM/dSRq561elXfd1eIUsoCSWhJJQYGELpSbFDqUHU2zw6743MhHCE3irS9fYQDaQNqb3vkvsoCSWhJJToH0LpSbFDqRftaPzMBTsmkPm3h0RDac9RajB1OlbXM6NLQkkoCSWhRJ8RSk9KdTFPoVByjpJQEkpCiYEjlJ4QSkJJKAllnOtYgeQjlJ4QSkJJKAllnOtYgeQjlJ4QSkJJKAllnOtYgeQjlJ4QSkJJKAllnOtYgeQjlJ4QSkJJKAllnOtYgeQjlJ4QSkJJKAllnOtYgeQjlJ4QSkJJKAllnOtYgeQjlJ4QSkJJKAllnOtYgeQjlJ4QSkJJKAllnOtYgeQjlJ4QSkJJKAllnOtYgeQjlJ4QSkJJKAllnOtYgeQjlJ4QSkJJKAllnOtYgeQjlJ4QSkJJKAllnOtYgeQjlJ4QSkJJKAllnOtYgeQjlJ4QSkJJKAllnOtYgeQjlJ4QSkJJKAllnOtYgeQjlJ4QSkJJKAllnOtYgeQjlJ4QSkJJKAllnOtYgeQjlJ4QSkJJKAllnOtYgeQjlJ4QSkJJKAllnOtYgeQjlJ4QSkJJKAllnOtYgeQjlJ4QSkJJKAllnOtYgeQjlJ4QSkJJKAllnOtYgeQjlJ4QSkJJKAllnOtYgeQjlJ4QSkJJKAllnOtYgeQjlJ4QSkJJKAllnOtYgeQjlJ4QSkJJKAllnOtYgeQjlJ4QSkJJKAllnOtYgeQjlJ4QSkJJKAllnOtYgeQjlJ4QSkJJKAllnOtYgeQjlJ5EQ7lt2zZ5/vnnAQTopZdeIpSBI5SeREP52q4W2fXq8wCC9AKhDByh9MQ99QogNDueayCUgSOUnhBKoDwQyvARSk8IJVAeCGX4CKUnhBIoD4QyfITSE0IJlAdCGT5C6QmhBMoDoQwfofSEUALlgVCGj1B6QiiB8kAow0coPSGUQHkglOEjlJ6EHMoRw4bLkBNOMP91LQfKCaEMH6H0JPRQ6k5//PHHy0kjRjjf0533jzhJTho+whg+bJgMGzpUhp54ovmv6/1A0hHK8BFKT0KferWxHD50mHO5S/ygYWko7XZcy6349oAkIJThI5SepDmUrh28v1zbtSPK6LL4e3S0adnXXO8HBhuhDB+h9CSEUEZj1Vd2G67tRl+L6+96wGAhlOEjlJ6EEErXst5ybcO+5tKb9aKvAUlBKMNHKD0hlF23YV+zU69Rulz/q8v1nKVrvehrQFIQyvARSk9KFcpJ478vv6j8d3nuid86lw+Ua2fviWs7qqfleuWrLo/fdmLX6+sVtkApEMrwEUpPShHKKy/7jnzsYx8z7p97nfM9A+U6/9jF0GHmVhGlf3ZtR9mDhWuZvYr2xCFDuiwbemI2oJbewxl/DzBYCGX4CKUnvkMZjaTPUPZEA6eB1JjpPZKu91j2YOFaptuJT7lG6XIb5viIExhMhDJ8hNITn6GMR3IwQqnnE3Vkp+w5xp64DhxWT8ut+DaBwUYow0coPfEVSlckByOUdsd3LeuOXcdewBNll9vp2zxDs7eb6LL4NoHBRijDRyg98RHK7iKpihVK1849UPFtRz8vSkenutyG09JY6uv63+jrQBIQyvARSk+KHcpCkVTFCmXeSK4Au+O7lsXZbdt1op8XpYHU5dELevRK1/hrQJIQyvARSk+KGcqeIqnSNPUaf11jaEeR9gpX+5B0HWXqlCu3hiCpCGX4CKUnxQrly+vukdNH/r0zjlErFt7oXN8Xu+O7lsXpqDJ6i4eODu3PUfb9drkGkkgi6Qhl+AilJ8UcUS6ovkaum3BRt6p/c6VzPZ/sju9aFqe3fUQPFvbbQuzUbPSCHmUv3lEaTUKJJCOU4SOUnvi4mCcp7LlE5VrenZ7W0e3a0aSOQKPB1KnYnu7TBAYDoQwfofQktFDqFGh8p9eYud7bHbte/HX7sAFdFr8vU0eT0RGpfiYPHECSEMrwEUpPQgtlNmZDTbT6Gyt7sIi/rtvSkWShbepoUkeYfXnAAVAKhDJ8hNKTkKdeAXQilOEjlJ4QSqA8EMrwEUpPCCVQHghl+AilJ4QSKA+EMnyE0hNCCZQHQhk+QukJoQTKA6EMH6H0hFAC5YFQho9QekIogfJAKMNHKD0hlEB5IJThI5SeEEqgPBDK8BFKT6KhfHP3Jnlj+9MAArR/5zpCGThC6Uk0lMeOHZOjR48CCBShDBuh9IRQAuWDUIaNUHpCKIHyQSjDRig9CTWU9y97SD516XI57vur5Zrb6p3vAcoNoQwbofQktFA2P/0H+acJ95tAquE/aCKWQAdCGTZC6Ukoody+fbt871eN8r6LHjFh/LvLfy9z65fKw6sek//2H8QSUIQybITSk7SHcv/+/XLVrPrcyPFDlzTJLbMb5LnNm3OIZQEtVVKhB8eKKmlxLUdQCGXYCKUnaQ7l7b9blAughrJyer1s2PjHvEgSyx4QyrJCKMNGKD1JYyijF+qccOEq+T+/bJDHn1zjDGQUsXQglGWFUIaNUHqSplDGL9Q586olsmzFI84ododYxhDKskIow0YoPUlDKLu7UMcVwt6YfV9nbLdu3er8zLJBKMsKoQwbofQk6aGcWrWw4IU6fbFy9WPywxsbcpE89fIH5I+bNjk/t2wQyrJCKMNGKD1Jcihffvll+b9+nI3kj25c2O2FOj15+g/PyFWzFsqQi1aabf3blAa59b8a5d8zo9SihTIenKbK/INPZVOXdVqqKsyyiqqWLsuOHm2Rqgpdt0KqWiKvxz7HbiMr/735y7r5nJ5+7+MqpSm+Tk6TVOa9N8Px98z/DPv3sn+OvRdeEcqwEUpPkhxKjdhpVzxg4vaP45bIk2vWOkPYnQ0bN8r0uxvkv/3HQ9lt/GyJuRBoz549Utu4zFsom2KByolFZKChrKqMbDsn+/4m5zLHZ/Xm947/DqpLUKNice3udyaUJUcow0YoPUl6KDVmen6yr7H8r/lL5POV2cj+32N+L3fX3C87d+40kfQaSqO7kZ379X6F0ogGKTJSc3xWLpzxOOVt7zipbIos6270F1kn//2Rz4n+oyAXyorMfwuNUOEboQwbofQkDaHUqP2yamGvYqkjxq9NXGTee/JFK+Xm2Q2ytaUlF0j/oXSMviLBiYZlYKF0fE6BgHVOk/Zhe0bX9WwMu36G6nh/L8OK0iKUYSOUnqQllBq3QrGMX6hTOaNeNv5xU5dAWj6nXl3Tia64DHTqtevn2Ki5Rm392V5W/u8eGWUWFPkdcqFkNDnYCGXYCKUnaQqlisfSdaHOY088lRdFF0LZoc+htJ/RE0coC3wGSoNQho1QepK2UCoby1Mve8B5oU5PVjy8yjzuTrf9/PMvOD+7zwYQyrzzeTldpzyNkoeycwSZP6KMbacQQpkYhDJshNKTNIZSTbi13gTylP9c0eVCne48tbZZrr1jodmmTtM2LH3Q+bn90o9Q5q4cda1jt1eqUHYXvtzyzm3av4t7JOzQw/9tUDqEMmyE0pMkh1Ljp1G79Nf1smnTs12id961jfK7BUvzXnfRc5gz71lktqWq5y+W3bt3Oz+z33qIgTOUuQjFohN5vXSh7GFZdNQbuTWkayyzv4Pz70koBx2hDBuh9CTJoVS/b1rpjKWGUl93jTYtfTydRvHCGxrMe2+Z0+DvkXU9xMAZysjrcRVVTf2YKh3Y1Kv7vswMx2d193tbhDKZCGXYCKUnSQ+lcsWyUCh37NghC+5fLpfcnJ1mnXjbQnPRj2vbRdPPUEaXWdlRWs9hK3YodXvu3yXy/ii7bh7HZxPKxCCUYSOUnqQhlCoey+5Cqe+7PPMeXXb5rxfKw6selfb2duc2gXJDKMNGKD1JSyhVNJYPPPhwXig1nPq1WfqavVCntbXVuR2gXBHKsBFKT9IUSmVjac873nbvIvM8V/1ZeblQBwgEoQwbofQkbaFUNpZRXi/UAQJBKMNGKD1JYyiVjWVJLtQBAkEow0YoPUlrKAH0HaEMG6H0hFAC5YNQho1QehIPJYAwEcrwEUpPoqGM/+sTQFgIZdgIpSfRUL6xvVn2vLQCQID2/mk1oQwcofQkGkrdmbZt+B2AAO14roFQBo5QekIogfJAKMNHKD0hlEB5IJThI5SeEEqgPBDK8BFKTwglUB4IZfgIpSeEEigPhDJ8hNITQgmUB0IZPkLpScihHDFsuJw4ZIicNGKEczlQTghl+AilJyGHcuiJQ81OP2zoUOdyoJwQyvARSk9CDuVJw0eYnf744493LnfRUagG1rUszh5UXMuApCGU4SOUnoR+jnLICSfI8GHDnMtcNJR6oNC4amhd77HsQcW1DEgaQhk+QulJWkPp2rkHIrptPaepgdXXhw/tPrKudYGkIpThI5SepDWUOkp0sTu6a1khrs8YeuKJZoSpP0cPIr0R3xYw2Ahl+AilJ6FNvdod3bVsIFxxtZ/lWubaBjCYCGX4CKUnhDKfjiB7e5XsQD8LKCVCGT5C6UmIodTzi65lvaGR1G30Jpb2oOJaBiQNoQwfofSkVKGcNP778ovKf5fnnvitc3mxuHb67ug5SNc2bCy7W27Z7biWAUlDKMNHKD0pRSivvOw78rGPfcy4f+51zvcUi+7k9paQQvR9hUKoseT2EISEUIaPUHriO5TRSPoO5ftHnGR28t5Om/b1wQJ95doWMFgIZfgIpSc+QxmPpO9Q2ifx6IjRtTyqt+9T0ZGopQ8kMNsY2nWZ5doWMFgIZfgIpSe+QumKpO9QarR0J+9pyrSnoOrIVB+mbu+hjLNP7yn0MAIgaQhl+AilJz5C2V0klc9Q6rnJ3jzXtadQ2uUaS9dy/YzulgFJRSjDRyg9KXYoC0VS+QqlHeX15vykDWF3I0Y7MnWNGPW8pnkObOSru3Q7fJ0Xko5Qho9QelLMUPYUSeUrlPbZrDpt6loeZaPa3RStXg3rWt5dYO32GGUiyQhl+AilJ8UK5cvr7pHTR/69M45RKxbe6Fx/IHQKVXfu3p4ztO/vLpT2YBF9TUeLOpLsbsRqY8l5SyQVoQwfofSkmCPKBdXXyHUTLupW9W+udK43EP0ZzdkHCrhGn3bUGN2evhY9L6l/Vhpc3ZYdgVrdBRgYTIQyfITSEx8X85SKjWT8nGEhNoTdPebONTqNh7A7dvq3u20Dg4lQho9QepLWUNqgFYqkLosfAKzuRn02itHzkPpefV0/U+kyfU3FR6X2QqDePswAKBVCGT5C6UlaQ6mx0qnQQhfvaNx0dKf/tXSqtLtIKg2drtObi4K6o79Xoc8ABgOhDB+h9CTNU68Aeo9Qho9QekIogfJAKMNHKD0hlEB5IJThI5SeEEqgPBDK8BFKTwglUB4IZfgIpSeEEigPhDJ8hNITQgmUB0IZPkLpCaEEygOhDB+h9IRQAuWBUIaPUHpCKIHyQCjDRyg9iYbyyOGDGYcABOhw+zuEMnCE0pNoKI8dOyZHjx4FEChCGTZC6QmhBMoHoQwbofQkpFDu27dP9uzZ41wGgFCGjlB6EkIoNZD3VTfK2DMaZczpC2XOrDrZuXOn871AOSOUYSOUnqQ5lG1tbdK4YKn8/Bv18tOR98uE0fUy8fz55ufKcxaaeB44cMC5LlCOCGXYCKUnaQ1l04qVcvUFtSaK475Wb0aRGzdslE2bnpV5dzeYaOoyjeiSRctNVF3bAcoJoQwbofQkbaFc89RamXppNpCXjmyQ22+olea1zbJ58+Y869atl9kz50vlWdlgXnthrax8eLVzm8nQJJWOA5ZV2eRaB+gbQhk2QulJWkK5ZcsWmTG5xkRPTZ9YK6tXPdYlkHEa1llTak1Udb2bx9VkDhbrnJ8xuAqH0qhscqwH9B6hDBuh9CQNoXz++RfMRToausmZkeGK3z/sjGIhGtWpY7IjUaUBdX3W4LGhrJSm2LKmSnsAq5CqlvxlQF8QyrARSk/SEMoHFj8oE86rM4HTkeHNV9bKg8uanEF00SnXmZPvk8tHZUeVV46ul2VLHnR+1uDpPpRHj7ZIVUX2AMYULAaCUIaNUHqSllBqHGvuaZTJF3VOv065pEYa6pY446h0vZvGdY4iJ323TubOWSi/Hl9jlrk+a/AQSvhHKMNGKD1JTSjH1cjaNc3mgQIrH1kt0yZ0BlBvCdErXe1Vr3X3Zado7fIbr6iRZUtXmHV1G7qtdIWy0DKg9whl2AilJ2kMpaVXu952fa1cNip7/lJvCbnqmwvMz3pOc8Y1NfLE40/mrZO+UNrXGU1i4Ahl2AilJ2kOpaUX+1TftkAqz16YiWaD3DWjTtav3+B8b/JD6cJIEsVBKMNGKD0JIZTWrCk1hmuZ5T2ULVVSETngdBkFNlW6Xy8Yyg7cHoIBIpRhI5SeEMpi6iZ2FVXS0vGe7K0erts8upt6zYjGl1hiAAhl2AilJ4SyeFqqKsxBJjdajI0uc5yxKxBKldsW07DoP0IZNkLpCaEsnuxosWvIOh8YkBEZXebrIZS55Tx0AP1HKMNGKD0hlEnR2xEloUT/EcqwEUpPCGVScI4S/hHKsBFKT9IUyiWNy2XXrl3OAKrehFIfXZfsUBbC+UkMDKEMG6H0JA2h1PskNW5Kn9mqsdu2bVuXCHYXSo2rfn/lnTfNz22nuflp52cNnsKhrKhqcawD9A2hDBuh9CQNoVTbt2+X+prF5tF1GrrpE2ukvnaxbN26NRfEeCg1phpV/XouXeeW8TVSe2+jWcf1GUDoCGXYCKUnaQmltXfvXjNtqiNLG7951Y2yYcPGXCg1hA11S0Vjqu+ZOalWGuuXyu7du53bBMoFoQwbofQkbaG0Dh48KI80rZLbb8iOMG00LRPITEz1uytbW1ud2wDKDaEMG6H0JK2htNrb2835xtm31uWCede0Onl09eNmmWsdoFwRyrARSk/SHsoonXLVC39cywAQytARSk9CCiWAwghl2AilJ4QSKB+EMmyE0hNCCZQPQhk2QukJoQTKB6EMG6H0hFAC5YNQho1QekIogfJBKMNGKD0JKZT79u0zj65zLQNAKENHKD0JIZQayPuqG2XsGY0y5vSFMmdWnezcudP5XqCcEcqwEUpP0hzKtrY2aVywVH7+jXr56cj7ZcLoepl4/nzzc+U5C008Dxw44FwXKEeEMmyE0pO0hlK/NuvqC2pNFMd9rd6MIjdu2CibNj0r8+5uMNHUZRrRJYuWm6i6tgOUE0IZNkLpSdpCueaptTL10mwgLx3ZYB6K3ry2WTZv3pxn3br1MnvmfKk8KxvMay+slZUPr3ZuEygXhDJshNKTtIRyy5Yt5nslNXpq+sRaWb3qsS6BjNOwzppSa6Kq6+lD0595Zp3zMwam8BcvVza51gFKi1CGjVB6koZQ6oPO9SIdDd3kzMhQvzrLFcVCNKpTx2RHokoD6vqs/iscSqOyybEeUDqEMmyE0pM0hFK/qHnCeXUmcDoyvPnKWnlwWZMziC465arfTXn5qOyo8srR9bJsyYPOz+o/G8pKaYota6q0B6AKqWrJXwaUEqEMG6H0JC2h1DjW3NMoky/qnH6dckmNNNQtccZR6Xo3jescRU76bp3MnbNQfj2+xixzfVb/dR/Ko0dbpKoiewBiChaDiVCGjVB6kppQjquRtWuazQMFVj6yWqZN6Ayg3hKiV7raq17r7stO0drlN15RI8uWrjDr6jZ0W4QS5YhQho1QepLGUFp6tett19fKZaOy5y/1lpCrvrnA/KznNGdcUyNPPP5k3jqDE8pCy4DSIZRhI5SepDmUll7sU33bAqk8e2Emmg1y14w6Wb9+g/O9pQ+lfZ3RJAYfoQwbofQkhFBas6bUGK5llv9QujCSRDIQyrARSk8IZbEUCmUHbg/BICOUYSOUnhDKYilwHrKlSirsQYhYYhARyrARSk8IZbEUCKXKxZJpWAweQhk2QukJoSyWHkKZW85DBzB4CGXYCKUnhLJYejuiJJQYPIQybITSkzSFcknjctm1a5czgKo3odRH15U8lJyjREIQyrARSk/SEEq9T1LjpvSZrRq7bdu2dYlgd6HUuOr3V9550/zcdpqbn3Z+Vv/ZUBbC+UkMLkIZNkLpSRpCqbZv3y71NYvNo+s0dNMn1kh97WLZunVrLojxUGpMNar69Vy6zi3ja6T23kazjuszBqZwKCuqWhzrAKVFKMNGKD1JSyitvXv3mmlTHVna+M2rbpQNGzbmQqkhbKhbKhpTfc/MSbXSWL9Udu/e7dwmUC4IZdgIpSdpC6V18OBBeaRpldx+Q3aEaaNpmUBmYqrfXdna2urcBlBuCGXYCKUnaQ2l1d7ebs43zr61LhfMu6bVyaOrHzfLXOsA5YpQho1QepL2UEbplKte+ONaBoBQho5QehJSKAEURijDRig9IZRA+SCUYSOUnhBKoHwQyrARSk8IJVA+CGXYCKUnhBIoH4QybITSE0IJlA9CGTZC6UlIody3b595dJ1rGQBCGTpC6UkIodRA3lfdKGPPaJQxpy+UObPqZOfOnc73AuWMUIaNUHqS5lC2tbVJ44Kl8vNv1MtPR94vE0bXy8Tz55ufK89ZaOJ54MAB57pAOSKUYSOUnqQ1lPq1WVdfUGuiOO5r9WYUuXHDRtm06VmZd3eDiaYu04guWbTcRNW1HaCcEMqwEUpP0hbKNU+tlamXZgN56cgG81D05rXNsnnz5jzr1q2X2TPnS+VZ2WBee2GtrHx4tXObQLkglGEjlJ6kJZRbtmwx3yup0VPTJ9bK6lWPdQlknIZ11pRaE1VdTx+a/swz65yfMTA9f3FzZZNrveRqqaqQ4yqqpMWxDOlEKMNGKD1JQyj1Qed6kY6GbnJmZKhfneWKYiEa1aljsiNRpQF1fVb/hRTKFqmq6Pi9CWVQCGXYCKUnaQilflHzhPPqTOB0ZHjzlbXy4LImZxBddMpVv5vy8lHZUeWVo+tl2ZIHnZ/VfzaUldLkXJ4OZhQZPWgSyqAQyrARSk/SEkqNY809jTL5os7p1ymX1EhD3RJnHJWud9O4zlHkpO/Wydw5C+XX42vMMtdn9V/aQxkZRWZUVlVJhf5MKINCKMNGKD1JTSjH1cjaNc3mgQIrH1kt0yZ0BlBvCdErXe1Vr3X3Zado7fIbr6iRZUtXmHV1G7otQhnXEcrKpuyfWwhliAhl2AilJ2kMpaVXu952fa1cNip7/lJvCbnqmwvMz3pOc8Y1NfLE40/mrZOEUNrpzYqqFsdyO7KrkKqWyOvxcDVV5g5qhg1cN5oqI+81evg9CWWQCGXYCKUnaQ6lpRf7VN+2QCrPXpiJZoPcNaNO1q/f4HxvCKFsip9HtFyxtOu5FIoroQwSoQwbofQkhFBas6bUGK5llv9QdiMSnAGF0shf1nkBTmyd6O/UJXiZZYSy7BDKsBFKTwhlsZQqlPEYKrtO/i0ouYD2MC3rRCiDRCjDRig9IZTFUrqpV1e47DnIzlB2s53eIpRBIpRhI5SeEMpiSVooe//7OBHKIBHKsBFKTwhlsfQ9lO4pUbsdRpQoPkIZNkLpCaEslj6M4OytHa4I2UANOJSdr7lHrj0glEEilGEjlJ6kKZRLGpfLrl27nAFUvQmlPrpu0EOZi2EsYpHXixHKvHst46NX3R5XvZYdQhk2QulJGkKp90lq3JQ+s1Vjt23bti4R7C6UGlf9/so7b5qf205z89POz+q/vp0TtGGLq6hqKtI5yqzcNK8LoSw7hDJshNKTNIRSbd++XeprFptH12nopk+skfraxbJ169ZcEOOh1JhqVPXruXSdW8bXSO29jWYd12cMTN9CqeKxzI4ui3UxT5T93SJ6CiChDBKhDBuh9CQtobT27t1rpk11ZGnjN6+6UTZs2JgLpYawoW6paEz1PTMn1Upj/VLZvXu3c5tAuSCUYSOUnqQtlNbBgwflkaZVcvsN2RGmjaZlApmJqX53ZWtrq3MbQLkhlGEjlJ6kNZRWe3u7Od84+9a6XDDvmlYnj65+3CxzrQOUK0IZNkLpSdpDGaVTrnrhj2sZAEIZOkLpSUihBFAYoQwbofSEUALlg1CGjVB6QiiB8kEow0YoPSGUQPkglGEjlJ4QSqB8EMqwEUpPCCVQPghl2AilJyGFct++febRda5lAAhl6AilJyGEUgN5X3WjjD2jUcacvlDmzKqTnTt3Ot8LlDNCGTZC6UmaQ9nW1iaNC5bKz79RLz8deb9MGF0vE8+fb36uPGehieeBAwec6wLliFCGjVB6ktZQ6tdmXX1BrYniuK/Vm1Hkxg0bZdOmZ2Xe3Q0mmrpMI7pk0XITVdd2gHJCKMNGKD1JWyjXPLVWpl6aDeSlIxvMQ9Gb1zbL5s2b86xbt15mz5wvlWdlg3nthbWy8uHVzm0C5YJQho1QepKWUG7ZssV8r6RGT02fWCurVz3WJZBxGtZZU2pNVHU9fWj6M8+sc37GwDi+8zHG/V2RCdNU2eX3zn5PpuO9SB1CGTZC6UkaQqkPOteLdDR0kzMjQ/3qLFcUC9GoTh2THYkqDajrs/ov/aGMf5F0Hr7AOQiEMmyE0pM0hFK/qHnCeXUmcDoyvPnKWnlwWZMziC465arfTXn5qOyo8srR9bJsyYPOz+o/G8pKaXIuT7iWKqnQ3z8exMgIk5Fl+hHKsBFKT9ISSo1jzT2NMvmizunXKZfUSEPdEmccla5307jOUeSk79bJ3DkL5dfja8wy12f1X/pDWdXdiNfGsrLJvRypQSjDRig9SU0ox9XI2jXN5oECKx9ZLdMmdAZQbwnRK13tVa9192WnaO3yG6+okWVLV5h1dRu6LULZB4QyGIQybITSkzSG0tKrXW+7vlYuG5U9f6m3hFz1zQXmZz2nOeOaGnni8Sfz1klCKFuqKszByD2V2SJVFbqdCqlqibwenxqNX3TTQ8S6nn/sQ9AJZTAIZdgIpSdpDqWlF/tU37ZAKs9emIlmg9w1o07Wr9/gfG8IoWzqWL8LV8jsei69Cp/9fVJy1S4KIpRhI5SehBBKa9aUGsO1zPIfym5ELpIZUCiN/GV2e13Wif5OXa5azSzrRShzI1FGk0EglGEjlJ4QymIpVSjjMVTuUV8uoP2KXOc2u0YWaUUow0YoPSGUxVK6qVdXtOzIrzOU3WynN7glJFiEMmyE0hNCWSxJC2Xvf5+ozmncvq2HdCCUYSOUnhDKYul7KN1TonY7pR9RDmyqFmlAKMNGKD0hlMXShxGcndp0Ra+7c5F9DmXna72aPrXbJ5JBI5RhI5SepCmUSxqXy65du5wBVL0JpT66btBDmYthLGKR14sRyrx7LeMB1O1FXrOjybz1ERxCGTZC6UkaQqn3SWrclD6zVWO3bdu2LhHsLpQaV/3+yjtvmp/bTnPz087P6r++nRO0YYurqGoq0jnKrM5zjg6RUHb3+8QR0nQjlGEjlJ6kIZRq+/btUl+z2Dy6TkM3fWKN1Nculq1bt+aCGA+lxlSjql/PpevcMr5Gau9tNOu4PmNg+hZKFY9TdnRZrIt5ouzvFpG3HfuZPSOU6UYow0YoPUlLKK29e/eaaVMdWdr4zatulA0bNuZCqSFsqFsqGlN9z8xJtdJYv1R2797t3CZQLghl2AilJ2kLpXXw4EF5pGmV3H5DdoRpo2mZQGZiqt9d2dra6twGUG4IZdgIpSdpDaXV3t5uzjfOvrUuF8y7ptXJo6sfN8tc6wDlilCGjVB6kvZQRumUq17441oGgFCGjlB6ElIoARRGKMNGKD0hlED5IJRhI5SeEEqgfBDKsBFKTwglUD4IZdgIpSeEEigfhDJshNITQgmUD0IZNkLpSUih3Ldvn3l0nWsZAEIZOkLpSQih1EDeV90oY89olDGnL5Q5s+pk586dzvcC5YxQho1QepLmULa1tUnjgqXy82/Uy09H3i8TRtfLxPPnm58rz1lo4nngwAHnukA5IpRhI5SepDWU+rVZV19Qa6I47mv1ZhS5ccNG2bTpWZl3d4OJpi7TiC5ZtNxE1bUdoJwQyrARSk/SFso1T62VqZdmA3npyAbzUPTmtc2yefPmPOvWrZfZM+dL5VnZYF57Ya2sfHi1c5tAuSCUYSOUnqQllFu2bDHfK6nRU9Mn1srqVY91CWSchnXWlFoTVV1PH5r+zDPrnJ8xMI7vfIxJw3c5dv0C59j3YiLVCGXYCKUnaQilPuhcL9LR0E3OjAz1q7NcUSxEozp1THYkqjSgrs/qv7SHsvCXN/OFzWEglGEjlJ6kIZT6Rc0TzqszgdOR4c1X1sqDy5qcQXTRKVf9bsrLR2VHlVeOrpdlSx50flb/2VBWSpNzedJpKLuOHjtHmGn9eyGKUIaNUHqSllBqHGvuaZTJF3VOv065pEYa6pY446h0vZvGdY4iJ323TubOWSi/Hl9jlrk+q//SHsru2L8XU7AhIJRhI5SepCaU42pk7Zpm80CBlY+slmkTOgOot4Tola72qte6+7JTtHb5jVfUyLKlK8y6ug3dFqHsLTslSyhDQCjDRig9SWMoLb3a9bbra+WyUdnzl3pLyFXfXGB+1nOaM66pkScefzJvnSSEsqWqwhyMKqpaHMu7CVNLlVTo9iuqpEX/3FSZO6gZlU2RbXTV9SKd3ga94+9lPxepRijDRig9SXMoLb3Yp/q2BVJ59sJMNBvkrhl1sn79Bud7QwhlU8f6Xbhiaddz6SGunX8nLuYJBaEMG6H0JIRQWrOm1BiuZZb/UHYjMiIbUCiN/GV2e12nRyO/U5cRYWZZl1Daz44KbSq5vBHKsBFKTwhlsZQqlPEYqs7ARUd+uYD2OHK0XKFUxDIUhDJshNITQlksNpQlOkcZY89Bdoaym+30UfejVaQRoQwbofSEUBZL0kLZ+9+nJ30fmSKpCGXYCKUnhLJY+h5Kd3jsdpIxojTsFbaEMvUIZdgIpSeEslj6MIKz4XFFr7tzkX0OZedr7pFr7zGiDAehDBuh9CRNoVzSuFx27drlDKDqTSj10XWDHspcDGMRi7xejFDm3WsZj5xuL/KaiaFj27lIxreNVCKUYSOUnqQhlHqfpMZN6TNbNXbbtm3rEsHuQqlx1e+vvPOm+bntNDc/7fys/uvbOUEbtriKqqYinaPMioaui3goXe/pMNBRKZKBUIaNUHqShlCq7du3S33NYvPoOg3d9Ik1Ul+7WLZu3ZoLYjyUGlONqn49l65zy/gaqb230azj+oyB6VsoVTyW2RgV62KeKPu7Rbi2E3/aj9H7vw+Sj1CGjVB6kpZQWnv37jXTpjqytPGbV90oGzZszIVSQ9hQt1Q0pvqemZNqpbF+qezevdu5TaBcEMqwEUpP0hZK6+DBg/JI0yq5/YbsCNNG0zKBzMRUv7uytbXVuQ2g3BDKsBFKT9IaSqu9vd2cb5x9a10umHdNq5NHVz9ulrnWAcoVoQwbofQk7aGM0ilXvfDHtQwAoQwdofQkpFACKIxQho1QekIogfJBKMNGKD0hlED5IJRhI5Se2FDW1dU5dywAYThy5AihDByh9ORv//ZvzY5TXV3t3LkAhKOpqYlQBoxQevLxj3/c7Dg33HCDc8cCEA6dOdL9/YMf/KAzkJbrWIHkI5Qe6Y4zfvx4544FIBw6c6T7+/vf/35nIC3XcQLJRyg9OuOMM+S8885z7lgAwjF27Fj553/+Z3nf+97nDKTlOk4g+QilR5///OfNvzL1RL9r5wKQfvooR93PTz31VGcco1zHCSQfofTok5/8pNmBpk2b5tzBAKSf3gKm+3lPF/Io13ECyUcoPRs1apScffbZ8tprrzl3MgDp9qMf/chMu55wwgnOOFrHH3+88xiB5COUnn32s581/9r8zW9+49zJAKTXokWLzP6t+7orjlEnnnhil+MD0oFQlsBXvvIVM6p8+eWXnTsbgPTRc5N6sZ7OGvV0EY8aPny48/iA5COUJWAfPvDtb3+b73AEAqFXuup+/eEPf9gZxjjXsQHpQChL5LTTTjM7le5c+uXIrh0PQDroqRTdnz/zmc84o+jiOi4gHQhlCf3DP/xDLpaMLIF0spHU/bk3U65KL/RxHROQDoSyhD760Y/mYqnTsJyzBNJD/3GrT9qykezpKtco1/EA6UEoB4GdhtULfPRfp4wugWTTZ7nqhTu63+p0a29HkorbQtKPUA6ST33qU+ZqWN3xzj33XBPMF154wbmTAii9HTt2mEDq7I/up3p16ymnnOKMYSGu/R/pQigHmd5neeaZZ5odUelOOXHiRPOQZaTT7Nmzna8jHfQbfy6++OLcPqn7p+6rfRlFWvH9HelEKBNCbyH54he/mBtlIp3GjRsnd911l1x77bXO5UgHjaNOsf7VX/2VM4C9MXToUOe+jvQhlAmkT/DQr+vR77ZDeuhBdebMmSaUd9xxh3zkIx9xvg/J5opeX/EUnrAQyoQaMWKEcwdEcv3P//k/TSR//vOfm//+27/9m/N9CJvuu659GulFKBPuL/7iL5w7I5JlyJAhcsstt8j06dPlE5/4hEyZMkVuu+02+cAHPuB8P8Kj+6prH0b6EcoUOPnkk507JpLDjia/9a1vmf+fVVRUMKosI/F9FmEhlCnDlGzyxEeT9v9XjCrDxhRr+SCUwADpKDI6mrTsqFK/rzD6OoB0IZTAAOgIUkeS8dGkpaPK22+/3dwvG18GIB0IJTAA3Y0mLUaVQPoRSqCfehpNWowqgXQjlEA/9TSatBhVAulGKIF+6O1o0mJUCaQXoQT6obejSYtRJZBehBLoo76OJi1GlUA6EUqU3CknZ2/YPvkU/fOH5UPD8m/kHvahD3dZJ0n6Opq0GFUC6UQoUXKdoTxFTo4EMs/JpzjXHWz9HU1ajCqB9CGUKDkbSmPYh+TD0eWndD7XNjviTBY7mtRQ6hds99XNN9/MqBJIGUKJksuFsptR44c/NKzg8sH03e9+14RuoC6//HLn9gEkD6FEyeWfo3T48IdkmIYyPtpMgVGjRpkQnnvuuc7lANKHUKLkCCWANCGUKLkeQ2nPUxJKAAlAKFFyPZ2jtMuTfpuIC6EEwkMoUXK5UDpi2blsmHzow+718kei9haTk+WUyHtz07clviCIUALhIZQouVzwPtQRM4eu07KRey6j8bNBjK2Tu3I2HlDPCCUQHkKJkssbGUZC11PYGFECGAyEEiXnDl4YCCUQHkKJkiOUANKEUKLkCCWANCGUKDlCCSBNCCVKjlACSBNCCRQRoQTCQyiBIiKUQHgIJVBEhBIID6EEiohQAuEhlEAREUogPIQSKCJCCYSHUAJFRCiB8BBKoIgIJRAeQgkUEaEEwkMogSIilEB4CCVQRIQSCA+hBIqIUALhIZQJ9vGPf1w+/elPI0X+5V/+xYTyvPPOcy5Hcn3iE59w7ocAoUwIjeJpp50mX/7yl+Wss85CSp1//vkmlBdddJFzOdLhq1/9qnz+85+XT37yk879FeWFUA6yT33qU/KlL30pt4OeffbZMnbsWEMPuNXV1UiZOXPmOF9H8o0fP97sezojYPfJM844Q0499VTn/ovyQCgHiU7zjBw5MrczXnfdddLU1CRvv/m6vLlns7Tu/qPs37lO9r78SIeVEavy/UmtNl7/06NZr6jH8m17TPYZj0c8EfGkvKFejXtK3thuremwNmtHp/07miOejvhD5u/yB2nN84y07lLrct7ctV7e3B23IWJjhz9m7cn31p5N8tZr6tmI5+Stvc/J23k2RzxvHNj7ghx4PW5L1j71YoeXst7I984bWzu0RLws7+zv6mDrnyJe6fSm2tbFoTdfjdguh95SO/K9rXZG7JJDB3ZJ24Hd3dhjtB94LesdtTffwb1y+ODrEfvk8CH1hsP+iFY53JZ1pO3NTu3WW8bR9rezDqsDXRwz3ul05GDEoayjcW1y7FjWu8faOxzu4r1jR7LeVUeNd9Wxo5l1j2QclWeeeUamTZtmzjfrPqqjTJ2ide3PCBuhHASf/exnc4GcOHGi7NjxquzfvUl2v7hcXv1jjWz/Y61s36TmR9TJ9mezdjy7oEN91nNqobHzuYaszaoxYpHsfH6R7DLu7/TC4oglslttUUsjHsj8bll7XlzWYXnWS+r3xmsvPZi1Va2IeEhea3lI9rY0RTycibyy/xB4RF7P/CPg9T9Zqzpo/DNeWS37MvHPysRexaL/Rib2b7yqukZ+fybunTTqVjbsrZmgt+60IjHvCPqbJuQdMc8FvTPib2UC/tYepcG2bLjz491ttF9XmXAbL2TtywTbhDoS7DdULNL7VSbOOZkotzqibGLcGeRcgN9SsQhn4tuWiW4nDW9+fNs1tu8oG9uO4GYimx9aG9nO0B7JRNVoUxpVKxvUo4YGtYMJamdYTUiPKI2olYno0ax3M+HMykRTReL5nollxrvKBrMjmu8dlT+/dyzzc9Zbb71lZnd0tkf3WZ2Sde3XCBehLLHPfe5zZmcbPXq0+RfrW6+/ZEKmgbQIJaEklIMfyk7vZkabx2Tnzp1y8cUXm/1XZ4M++tGPOvdxhIdQlpCN5IUXXig7tr+SicMqeXXjfZk4KkJJKAllUkP55z+/m3n9PTl06JCZBdL9WK8tcO3nCA+hLBE73aqRfOP1XSZMr26cRygJZSdCmehQ/vnP7xl6/lKvKdD9+Qtf+IJzf0dYCGUJ6CXmulPpdKuOJDVa2UgSSkJJKNMWStXW1iY/+tGPzH79mc98xrnfIxyEsgTs1a16TvK1TBw6I0koCSWhTGMo//zee7Jr1y7R20hOP/10Oemkk5z7PsJAKD3T+yQ1knpeo3XPs7Jt41xCSSgjCGUaQ5n5H3POsq6uzuzfH/nIR+S4446Tk08+2XkcQLoRSs/03iu9rPy1PbtNyAgloSSUpQ/lkcNtZrq0vb09s6w4ocz8j9mmjir1oQTve9/7TCyHDh3qPBYgvQilR/pQAf3X5g033CD7MwfcbRvmEkpCGYkkofQdSn0oweH2TCAzQdOoZWPZlnm9I5YDDGV0VHnKKaeYUKoTTjjBeUxAOhFKj+ztIE899VQmYg2EklASyhKGUiN55PAhE8YXXnhBHnvsMXnyySdl3759nbEcYCjV3r17zX6uF/XYUKohQ4Y4jwtIH0LpkU676pWub7fuyUTyd4SSUBLKEoby6JE2eeedd2THjh0yd+5cueqqq2Ty5Mny9NNPZ2OZGV0e0/OVAwzlu+++K2PGjJEzzzwzN/1qDR8+3HlsQLoQSo/0X5n6kOX9uzYSSkJJKEsYysOHs+cjdbSnD6nXWzn0WoGvf/3rJpZPPPGEWa7ezT3ztX+h1OlXfcSd7u8jRozIC6VyHRuQLoTSE/3aLN1x9PzkG9ubixzKO+SWr+TvjDlf+YmsJZSEsoxDaSKZGS2++OKLcu+995pI/vjHP5bLL79cLrvsMvne974n119/vaxatco8aeewucDHTsH2PZR/zvxsz1N+8IMf7LJPHn/88c5jBNKDUHpiHzKg/9LUb/UoTihvk5u7C2TO38stDxFKQll+oTx6+B1zdauOEjWS8+bNk5/85CfmaVgzZ86UJUuWSENDgwmmxvOXv/ylNDc3y+uvv549Z2li2b9QLlu2zOzvf/3Xf+3YJ4+TD3zgA87jBNKBUHqiX8ejO47+S3PPSyuKEMpJ8h+OHbArQkkoyy+URzMOtx805yR1ulVHkhrJb33rW3LzzTebC+pee+01c76ypqbGjCy//e1vyzXXXGPOWba2tmZGopmRpU7D9iOU+jCRQqFkVJluhNITG0r9l2YxQln3/fjO9zm5ZUX8HOWdcstXCCWhLL9QHm7PXt2qIbTnJHUkqZHcsmWLLF++XO644w757W9/K88//7wsWrRIrrjiCvNdk/rc1kcffdSMRDWW7757pOihVK7jBNKBUHpS1FDefW7+Tvf9a7mYh1ASyo5QHtZbQNqyt4Do1a32nKROt+pIUiOpMdRzkz/84Q/ld7/7naxcuVLuv/9+c7XqD37wA/nVr34lq1evlrfffjuzvcNmZFnsUP7lX/6l81iB5COUnhQzlPmjydGygKteCSWhzIXSPkhA75O85ppr5IILLpAZM2bIQw89ZO6b1NcuuugiM9X6ne98x8RRg7pmzRqpr6835ywvvfRSmT17tuzfv99s60hmZFnsUA4bNsx5rEDyEUpPihfK2LnJ70/qiCShJJSEUkOpU64aN43itGnTjPXr15tbQH7xi1/Iv/7rv5ppVn39xhtvlPPPP998AXN1dbU5Nzl//nyz7J577jF/1ilYH6HkAQTpRSg9KVooH/yxnBnZ2c687jZCSSgJZSSUerVre/sh8xCBV155xVi6dKm5X1KjWFlZafZDfV2vhtUo6hSsTtHefffdJnK6TM9vHjx4UI6YJ/bYSBYvlFzQk16E0hNCSSgJZeku5mlvO2RGlXqrh94fee2115oQjh07Vh544AHZtm2bWa5XxWrUbr31VjOq1ClZnYbVC3x0uco/P1m8UCrXsQLJRyg9YeqVUBLKEo0ojxw00696W4hOv1599dXmitdx48aZ+yY1nvpQAX2PXtWqU6t6S8j06dPN7SN6zlIv8NFRpY4ojx7VBw8QSnQilJ4UL5S/kZu/HN3ZuJiHUBLK7i7m0XOS55xzjrlAZ/HixebJO7rs6BF9VJ0+VCAbTH1dbxuZOnWqmZ7VkaXeVmIv5jl65DChRA6h9KR4oXTcQ8ntIYSSUDpDOWXKFPnZz35m9js956hR1G8QORb54maNpY4s9cIdvaVEr5DVUajvq16V61iB5COUnhQzlPHzlFk6soyHkgcOEMryC6V52EAmbi+99JKsWLHCePXVVzsimYljJoz65c02lCaWmRGmxlKjqNOwuo5eJav3UerUrI/7KJXrWIHkI5SeFDWU6u7Rzh2vK0JJKMsrlOZinvaD0tYxzWplI3koG8lYKPVLm83IMhPF6Dr6Z19P5lGuYwWSj1B6UvRQ6kPRq3sTS0JJKMsvlOZbQzSWuUge7Ihk96E0MlHUkWcuksf691B0Qhk2QumJl1B2fM3W2us+59wJ1SXVmUByjpJQll0os7HU85FHjhySo0d7G8rDmT8fMd8ckv1eSkKJrgilJz5Dye0hhJJQukKZjaV+cbPqbSg7v7SZUMKNUHpCKAkloSSUca5jBZKPUHpCKAkloSSUca5jBZKPUHpCKAkloSSUca5jBZKPUHpCKAkloSSUca5jBZKPUHpCKAkloSSUca5jBZKPUHpCKAkloSSUca5jBZKPUHpCKAkloSSUca5jBZKPUHpCKAkloSSUca5jBZKPUHpCKAkloSSUca5jBZKPUHpS6lDqTkgoCSWhJJQoPkLpia9QDhs6VIaeOFTeP+KkHkM5fNgw835CSSgJJaFE/xFKT3yF8qThI2TICSfI8ccfLyOGDXeGMvoe/ZlQEkpCSSjRf4TSE99TrzpS7C6UdtTJ1CuhJJSEEgNHKD3hHCWhJJSEMs51rEDyEUpPfITSteP1BaEklISSUKLvCKUnPkKp5xvjdJpV6U7oWh5FKAkloSSU6DtC6Ukppl41kMOHDstNvepVrnreUq+IZeqVUBJKQoniIJSe+AylxnDICSd0uZhHL+CxO+SJQ4ZEokkoCSWhJJToL0LpSbFDqcHT0aPe8jH0xBML3kep06w62tT36usaUI0moSSUhJJQou8IpSfFDmX2lo8TTQRdV71qJF1Xver7NZS6PqEklISSUKLvCKUnpThHGQ2lTsVyewihJJSEEsVHKD0pdihdO11fEUpCSSgJJfqOUHpS7FDaWzzi9EpXuxPqOUzXeyxCSSgJJaFE3xFKT0o19apXt+q0q16sY57tOiITRKZeCSWhJJQoGkLpSSlCGX3QgJ6ftFe6mtEjoSSUhJJQoigIpSc+Q2nvo9Qdz9xLGbnqVadf9XV7hSyhJJSEklBiYAilJ8UOpQZRb/PovDcyE8IReqtI19tDNJA2pPa+S+6jJJSEklCifwilJ8UOpV60o/EzF+yYQObfHhINpT1HqcHU6Vhdz4wuCSWhJJSEEn1GKD0p1cU8hULJOUpCSSgJJQaOUHpCKAkloSSUca5jBZKPUHpCKAkloSSUca5jBZKPUHpCKAkloSSUca5jBZKPUHpCKAkloSSUca5jBZKPUHpCKAkloSSUca5jBZKPUHpCKAkloSSUca5jBZKPUHpCKAkloSSUca5jBZKPUHpCKAkloSSUca5jBZKPUHriO5SvbKiVNSvukAXV18pDjb+WretqCCWhJJSEEh4QSk98h/KlP8yV2jmT5OLvnSuTxl8oKxfPlBf/cF9mWUcsewrlPd907sjHHfdNWUgoOxBKQkkoQSi98R3KF9beK3dOq5Qzvvw5+aev/r1MueqH0rRoury8bn42lr0M5T9dPycyopwj076qO/QXZNojhJJQEkpCCUUoPSlFKO+4ZayM/IdT5bT//mn5/nfPk9/c8jNZtfjWzGizpp+hzIwkH/mp/JN5/W5CSSgJJaFEBqH0pFih3PxUtTz7xN0Zmf8+mfXck/8lzU13yq+n/KeM+vIX5bxvflN+df21cs1Vl8ktv7xMVi+ZJS+vnz+gUB530a8IJaEklIQSGYTSk2KFsmr6WJn5qzFZU62fyk2T/0O+/53/JV/6H38vV155pTy0YoXcecdvZNIvLpff3PwzeeT+Gf0L5b3Z13/yOxtJQkkoCSWhLG+E0pNihfJ7/9/X5H//r69k/b+dzv3a6fI/vvAZ+e+nflomTZokmzZtklUrV8qvb/6VVF56oVTfNqHvoXSOJgkloSSUhLK8EUpPihXKKVf9QH5+2bcz/o/8/PJOlf95vnzj66PkH774/8jEiRPlqaeelJr75sl114yXqZPGyP33Te1VKLviqldCSSgJJaIIpSfFCmVz0x2y5sHbslZYt8vK+6fLr66+WM74yj/K979/oVTdebtce82Vcu1V/yEPzL9ZXlg7t1ehjE+9Lrwou0NzMQ+hJJSEElmE0pNihbJT51Wv+rO96vVL/3iajPwf/yCXXPzvctOUy6Xh3uvluSfvzYSxn1e95m4ROS8zsiSUhJJQEkoQSk98hjJ6e8iX/uFU+ccvfFbG/ue3ZdG8qWYk+eqm+gGEcok8ff0XMsui91ISSkJJKAll+SKUnvgO5YtPz5V7br9Kzv/f/yQ/ueh/Z0aSv5RNT/xX5n19ezIPoSSUhJJQojBC6YnvUP5pfY2svH+GGVXWVU+WzWvuzY4ke/usV6ZeCSWhJJToFULpie9Q6p9f+sM82fDoHHl+7b2ybdOCvj0UvYeLebiPklASSkKJLELpie9QZg3ga7Y6QtkVt4cQSkJJKBFFKD1JfCit3GjSTr1qJAkloSSUhBIWofSEUBJKQkko41zHCiQfofSEUBJKQkko41zHCiQfofSEUBJKQkko41zHCiQfofSEUBJKQkko41zHCiQfofSEUBJKQkko41zHCiQfofSEUBJKQkko41zHCiQfofSEUBJKQkko41zHCiQfofSEUBJKQkko41zHCiQfofSEUBJKQkko41zHCiQfofSEUBJKQkko41zHCiQfofSEUBJKQkko41zHCiQfofSEUBJKQkko41zHCiQfofSEUBJKQkko41zHCiQfofSEUBJKQkko41zHCiQfofSEUBJKQkko41zHCiQfofSEUBJKQkko41zHCiQfofSEUBJKQkko41zHCiQfofSEUBJKQkko41zHCiQfofSEUBJKQkko41zHCiQfofSEUBJKQkko41zHCiQfofSEUBJKQkko41zHCiQfofSEUBJKQkko41zHCiQfofSEUBJKQkko41zHCiQfofSEUBJKQkko41zHCiQfofSEUBJKQkko41zHCiQfofSEUBJKQkko41zHCiQfofSEUBJKQkko41zHCiQfofQkGsq9rzwlO19YnrVlueza8vuIB2XXi2pFzm6Vievulx6KaIp4ON9W9YixZ+vKrBa1Kt/Lq+Q1Y3XEoxGPZYKV8ae4xzN/B+uJDk9mbev0+ranItZErJXXX10r+/I0y77t6umcN7b/Qd7YEfdMxLoO67N25tu/c4Ps36U2RvxR9u/+o7Tm2RTxrPHm7ufkzT1xm7NeU893eCFrb7639m7p8GLES/LW6129vW9rREunN9TLXRx4408Rr8iB/Wpbvlb1asR2OfDmdnnnzR3d2GkcfHNX1ltqd763d2diuSfiNTl0QO11eD1inxx6J6vtnTc6HbT2G+0HW7MOqTe7OGy81ant7YgDWe1x78jhw1lHDh/scKiLo4fbso6o9ojDcvTo4Uxoo47IsWPqaMSxPIQybITSk2got23bJs8//zyAAL300kuEMnCE0pNoKHUEtTszagQQnr1/Wk0oA0coPXGfowQQmh3PNRDKwBFKTwglUB4IZfgIpSeEEigPhDJ8hNITQgmUB0IZPkLpCaEEygOhDB+h9IRQAuWBUIaPUHpCKIHyQCjDRyg9CTmUI4YNlxOHDJGTRoxwLgfKCaEMH6H0JORQDj1xqNnphw0d6lwOlBNCGT5C6UnIoTxp+Aiz0x9//PHO5S46CtXAupbF2YOKaxmQNIQyfITSk9DPUQ454QQZPmyYc5mLhlIPFBpXDa3rPZY9qLiWAUlDKMNHKD1JayhdO/dARLet5zQ1sPr68KHdR9a1LpBUhDJ8hNKTtIZSR4kudkd3LSvE9RlDTzzRjDD15+hBpDfi2wIGG6EMH6H0JLSpV7uju5YNhCuu9rNcy1zbAAYToQwfofSEUObTEWRvr5Id6GcBpUQow0coPQkxlHp+0bWsNzSSuo3exNIeVFzLgKQhlOEjlJ6UKpSTxn9fflH57/LcE791Li8W107fHT0H6dqGjWV3yy27HdcyIGkIZfgIpSelCOWVl31HPvaxjxn3z73O+Z5i0Z3c3hJSiL6vUAg1ltwegpAQyvARSk98hzIaSd+hfP+Ik8xO3ttp074+WKCvXNsCBguhDB+h9MRnKOOR9B1K+yQeHTG6lkf19n0qOhK19IEEZhtDuy6zXNsCBguhDB+h9MRXKF2R9B1KjZbu5D1NmfYUVB2Z6sPU7T2UcfbpPYUeRgAkDaEMH6H0xEcou4uk8hlKPTfZm+e69hRKu1xj6Vqun9HdMiCpCGX4CKUnxQ5loUgqX6G0o7zenJ+0IexuxGhHpq4Ro57XNM+BjXx1l26Hr/NC0hHK8BFKT4oZyp4iqXyF0j6bVadNXcujbFS7m6LVq2Fdy7sLrN0eo0wkGaEMH6H0pFihfHndPXL6yL93xjFqxcIbnesPhE6h6s7d23OG9v3dhdIeLKKv6WhRR5LdjVhtLDlviaQilOEjlJ4Uc0S5oPoauW7CRd2q/s2VzvUGoj+jOftAAdfo044ao9vT16LnJfXPSoOr27IjUKu7AAODiVCGj1B64uNinlKxkYyfMyzEhrC7x9y5RqfxEHbHTv92t21gMBHK8BFKT9IaShu0QpHUZfEDgNXdqM9GMXoeUt+rr+tnKl2mr6n4qNReCNTbhxkApUIow0coPUlrKDVWOhVa6OIdjZuO7vS/lk6VdhdJpaHTdXpzUVB39Pcq9BnAYCCU4SOUnqR56hVA7xHK8BFKTwglUB4IZfgIpSeEEigPhDJ8hNITQgmUB0IZPkLpCaEEygOhDB+h9IRQAuWBUIaPUHpCKIHyQCjDRyg9IZRAeSCU4SOUnhBKoDwQyvARSk8IJVAeCGX4CKUn0VAeOXww4xCAAB1uf4dQBo5QehIN5bFjx+To0aMAAkUow0YoPSGUQPkglGEjlJ6EFMp9+/bJnj17nMsAEMrQEUpPQgilBvK+6kYZe0ajjDl9ocyZVSc7d+50vhcoZ4QybITSkzSHsq2tTRoXLJWff6Nefjryfpkwul4mnj/f/Fx5zkITzwMHDjjXBcoRoQwbofQkraFsWrFSrr6g1kRx3NfqzShy44aNsmnTszLv7gYTTV2mEV2yaLmJqms7QDkhlGEjlJ6kLZRrnlorUy/NBvLSkQ1y+w210ry2WTZv3pxn3br1MnvmfKk8KxvMay+slZUPr3ZuM5lapKrCcRCrbHK8F+gdQhk2QulJWkK5ZcsWmTG5xkRPTZ9YK6tXPdYlkHEa1llTak1Udb2bx9VkDhbrnJ+RFE2V7oNXp0ppcqwH9IRQho1QepKGUD7//AvmIh0N3eTMyHDF7x92RrEQjerUMdmRqNKAuj5rcOWPIiuqWrq+p6kys4xQon8IZdgIpSdpCOUDix+UCefVmcDpyPDmK2vlwWVNziC66JTrzMn3yeWjsqPKK0fXy7IlDzo/azB1jiQJIfwglGEjlJ6kJZQax5p7GmXyRZ3Tr1MuqZGGuiXOOCpd76ZxnaPISd+tk7lzFsqvx9eYZa7PGjQtVVJhDlJEEv4QyrARSk9SE8pxNbJ2TbN5oMDKR1bLtAmdAdRbQvRKV3vVa9192Slau/zGK2pk2dIVZl3dhm4raaFsqaowByjndCtQJIQybITSkzSG0tKrXW+7vlYuG5U9f6m3hFz1zQXmZz2nOeOaGnni8Sfz1klmKO25yQqpanEtB4qDUIaNUHqS5lBaerFP9W0LpPLshZloNshdM+pk/foNzvcSSpQzQhk2QulJCKG0Zk2pMVzLLO+hzJ1rzKpsii03V63GX2+SSvN+zk/CL0IZNkLpCaEsJhu8mIoqael4T/bK1vjIkRElSoNQho1QekIoi8dekJMbLcZGlzmOp+vYW0O4mAc+EcqwEUpPCGXxZGPXdfo070k7kdFlno4p2W6XA0VAKMNGKD0hlEkRmbblea7whFCGjVB6QigTJG+q1n2+Mju9y0U/6B9CGTZC6UmaQrmkcbns2rXLGUDVm1Dqo+sSG0rV3XnNPIQS/UMow0YoPUlDKPU+SY2b0me2auy2bdvWJYLdhVLjqt9feedN83PbaW5+2vlZSWEvDIrjYh8MBKEMG6H0JA2hVNu3b5f6msXm0XUauukTa6S+drFs3bo1F8R4KDWmGlX9ei5d55bxNVJ7b6NZx/UZQOgIZdgIpSdpCaW1d+9eM22qI0sbv3nVjbJhw8ZcKDWEDXVLRWOq75k5qVYa65fK7t27ndsEygWhDBuh9CRtobQOHjwojzStkttvyI4wbTQtE8hMTPW7K1tbW53bAMoNoQwbofQkraG02tvbzfnG2bfW5YJ517Q6eXT142aZax2gXBHKsBFKT9IeyiidctULf1zLABDK0BFKT0IKJYDCCGXYCKUnhBIoH4QybITSE0IJlA9CGTZC6QmhBMoHoQwbofSEUALlg1CGjVB6QiiB8kEow0YoPQkplPv27TOPrnMtA0AoQ0coPQkhlBrI+6obZewZjTLm9IUyZ1ad7Ny50/leoJwRyrARSk/SHMq2tjZpXLBUfv6NevnpyPtlwuh6mXj+fPNz5TkLTTwPHDjgXBcoR4QybITSk7SGUr826+oLak0Ux32t3owiN27YKJs2PSvz7m4w0dRlGtEli5abqLq2A5QTQhk2QulJ2kK55qm1MvXSbCAvHdlgHorevLZZNm/enGfduvUye+Z8qTwrG8xrL6yVlQ+vdm4TKBeEMmyE0pO0hHLLli3meyU1emr6xFpZveqxLoGM07DOmlJroqrr6UPTn3lmnfMziqtFqiocB6HKJsd7gdIglGEjlJ6kIZT6oHO9SEdDNzkzMtSvznJFsRCN6tQx2ZGo0oC6PqsYmirdB59OldLkWA/wjVCGjVB6koZQ6hc1TzivzgROR4Y3X1krDy5rcgbRRadc9bspLx+VHVVeObpeli150PlZA5M/iqyoaun6nqbKzDJCicFBKMNGKD1JSyg1jjX3NMrkizqnX6dcUiMNdUuccVS63k3jOkeRk75bJ3PnLJRfj68xy1yfNRCdI0lCiGQilGEjlJ6kJpTjamTtmmbzQIGVj6yWaRM6A6i3hOiVrvaq17r7slO0dvmNV9TIsqUrzLq6Dd1W0UPZUiUV5iBDJJFchDJshNKTNIbS0qtdb7u+Vi4blT1/qbeEXPXNBeZnPac545oaeeLxJ/PW8RXKlqoKc4BxTrcCCUEow0YoPUlzKC292Kf6tgVSefbCTDQb5K4ZdbJ+/Qbne/2E0p6brJCqFtdyIBkIZdgIpSchhNKaNaXGcC2zCCXKGaEMG6H0hFAWQ5NUmgMM5yeRbIQybITSE0JZDIwokQ6EMmyE0hNCWRz21hAu5kGSEcqwEUpPCGWRmAcJZA4yFVXS4loOJAChDBuh9IRQFos9T5nB81yRUIQybITSkzSFcknjctm1a5czgKo3odRH1/kJZUbuoQPKfb4ye78lF/1gcBDKsBFKT9IQSr1PUuOm9JmtGrtt27Z1iWB3odS46vdX3nnT/Nx2mpufdn7WgOXFsjuEEoODUIaNUHqShlCq7du3S33NYvPoOg3d9Ik1Ul+7WLZu3ZoLYjyUGlONqn49l65zy/gaqb230azj+oxisk/qieNiHwwmQhk2QulJWkJp7d2710yb6sjSxm9edaNs2LAxF0oNYUPdUtGY6ntmTqqVxvqlsnv3buc2gXJBKMNGKD1JWyitgwcPyiNNq+T2G7IjTBtNywQyE1P97srW1lbnNoByQyjDRig9SWsorfb2dnO+cfatdblg3jWtTh5d/bhZ5loHKFeEMmyE0pO0hzJKp1z1wh/XMgCEMnSE0pOQQgmgMEIZNkLpCaEEygehDBuh9IRQAuWDUIaNUHpCKIHyQSjDRig9IZRA+SCUYSOUnhBKoHwQyrARSk9CCuW+ffvMo+tcywAQytARSk9CCKUG8r7qRhl7RqOMOX2hzJlVJzt37nS+FyhnhDJshNKTNIeyra1NGhcslZ9/o15+OvJ+mTC6XiaeP9/8XHnOQhPPAwcOONcFyhGhDBuh9CStodSvzbr6gloTxXFfqzejyI0bNsqmTc/KvLsbTDR1mUZ0yaLlJqqu7QDlhFCGjVB6krZQrnlqrUy9NBvIS0c2mIeiN69tls2bN+dZt269zJ45XyrPygbz2gtrZeXDq53bBMoFoQwbofQkLaHcsmWL+V5JjZ6aPrFWVq96rEsg4zSss6bUmqjqevrQ9GeeWef8jOJqkaoKx0Gosin2viapjL8nprIp+n6g/whl2AilJ2kIpT7oXC/S0dBNzowM9auzXFEsRKM6dUx2JKo0oK7PKoamSvfBp1OlNOXeTyhROoQybITSkzSEUr+oecJ5dSZwOjK8+cpaeXBZkzOILjrlqt9Nefmo7KjyytH1smzJg87PGpj8UWRFVUvX9zRVZpa5Qhl9DfCDUIaNUHqSllBqHGvuaZTJF3VOv065pEYa6pY446h0vZvGdY4iJ323TubOWSi/Hl9jlrk+ayA6R5J9iR6hROkQyrARSk9SE8pxNbJ2TbN5oMDKR1bLtAmdAdRbQvRKV3vVa9192Slau/zGK2pk2dIVZl3dhm6r6KFsqZIKc5Dpa/AIJUqHUIaNUHqSxlBaerXrbdfXymWjsucv9ZaQq765wPys5zRnXFMjTzz+ZN46vkLZUlVhDjDO6daCeh/Kwp9hp30rpKol8roNeEWVtOifzdRv5wGx68VF+bqebyXoaUYow0YoPUlzKC292Kf6tgVSefbCTDQb5K4ZdbJ+/Qbne/2EsptI9UrpQtnUsX4XrljmRsgOPcQVyUUow0YoPQkhlNasKTWGa5mV3FB2w44EMwYUSiN/md1e19878jtFPj+3jFCmFqEMG6H0hFAWQ+9HhV2VKpSuiNt18m9ByQWUIAaHUIaNUHpCKIuhGCPKEp2jjLHnIDtDOZC/C5KOUIaNUHpCKIvDBscdsUKSFsqBjI6RdIQybITSE0JZJPZq0m6C1L2+h9I9JWq3w4gS3SOUYSOUnhDKYrGhyujTub0+jOAKxbi7c5F9DuVARsdIOkIZNkLpSZpCuaRxuezatcsZQNWbUOqj6/yEMiMXK+UekWVHhdEo9iGUke3nRazQ5/YjlHn3Wsajr9vjIp/UIpRhI5SepCGUep+kxk3pM1s1dtu2besSwe5CqXHV76+886b5ue00Nz/t/KwBy4tWd/oZygwbtriKqqYinaPMyk3zuhDK1CKUYSOUnqQhlGr79u1SX7PYPLpOQzd9Yo3U1y6WrVu35oIYD6XGVKOqX8+l69wyvkZq720067g+o5i6C03X6cy+hVLFY5ndZrEu5omKTCdb3WwH6UAow0YoPUlLKK29e/eaaVMdWdr4zatulA0bNuZCqSFsqFsqGlN9z8xJtdJYv1R2797t3CZQLghl2AilJ2kLpXXw4EF5pGmV3H5DdoRpo2mZQGZiqt9d2dra6twGUG4IZdgIpSdpDaXV3t5uzjfOvrUuF8y7ptXJo6sfN8tc6wDlilCGjVB6kvZQRumUq17441oGgFCGjlB6ElIoARRGKMNGKD0hlED5IJRhI5SeEEqgfBDKsBFKTwglUD4IZdgIpSeEEigfhDJshNITQgmUD0IZNkLpSUih3Ldvn3l0nWsZAEIZOkLpSQih1EDeV90oY89olDGnL5Q5s+pk586dzvcC5YxQho1QepLmULa1tUnjgqXy82/Uy09H3i8TRtfLxPPnm58rz1lo4nngwAHnukA5IpRhI5SepDWU+rVZV19Qa6I47mv1ZhS5ccNG2bTpWZl3d4OJpi7TiC5ZtNxE1bUdoJwQyrARSk/SFso1T62VqZdmA3npyAbzUPTmtc2yefPmPOvWrZfZM+dL5VnZYF57Ya2sfHi1c5tAuSCUYSOUnqQllFu2bDHfK6nRU9Mn1srqVY91CWSchnXWlFoTVV1PH5r+zDPrnJ8xMI7vboxxf+djcpnv1OT7J4NCKMNGKD1JQyj1Qed6kY6GbnJmZKhfneWKYiEa1aljsiNRpQF1fVb/hRRK+yXQGYQyKIQybITSkzSEUr+oecJ5dSZwOjK8+cpaeXBZkzOILjrlqt9Nefmo7KjyytH1smzJg87P6j8bykppci5PBzOKjB40CWVQCGXYCKUnaQmlxrHmnkaZfFHn9OuUS2qkoW6JM45K17tpXOcoctJ362TunIXy6/E1Zpnrs/ov7aGMjCIzKquqpEJ/JpRBIZRhI5SepCaU42pk7Zpm80CBlY+slmkTOgOot4Tola72qte6+7JTtHb5jVfUyLKlK8y6ug3dFqGM6whlZVP2zy2EMkSEMmyE0pM0htLSq11vu75WLhuVPX+pt4Rc9c0F5mc9pznjmhp54vEn89ZJQijt9GZFVYtjuR3ZVUhVS+T1eLiaKnMHNcMGrhtNlZH3Gj38noQySIQybITSkzSH0tKLfapvWyCVZy/MRLNB7ppRJ+vXb3C+N4RQNsXPI1quWNr1XArFlVAGiVCGjVB6EkIorVlTagzXMst/KLsRCc6AQmnkL+u8ACe2TvR36hK8zDJCWXYIZdgIpSeEslhKFcp4DJVdJ/8WlFxAe5iWdSKUQSKUYSOUnhDKYind1KsrXPYcZGcou9lObxHKIBHKsBFKTwhlsSQtlL3/fZwIZZAIZdgIpSeEslj6Hkr3lKjdDiNKFB+hDBuh9IRQFksfRnD21g5XhGygBhzKztfcI9ceEMogEcqwEUpP0hTKJY3LZdeuXc4Aqt6EUh9dN+ihzMUwFrHI68UIZd69lvHRq26Pq17LDqEMG6H0JA2h1PskNW5Kn9mqsdu2bVuXCHYXSo2rfn/lnTfNz22nuflp52f1X9/OCdqwxVVUNRXpHGVWbprXhVCWHUIZNkLpSRpCqbZv3y71NYvNo+s0dNMn1kh97WLZunVrLojxUGpMNar69Vy6zi3ja6T23kazjuszBqZvoVTxWGZHl8W6mCfK/m4RPQWQUAaJUIaNUHqSllBae/fuNdOmOrK08ZtX3SgbNmzMhVJD2FC3VDSm+p6Zk2qlsX6p7N6927lNoFwQyrARSk/SFkrr4MGD8kjTKrn9huwI00bTMoHMxFS/u7K1tdW5DaDcEMqwEUpP0hpKq7293ZxvnH1rXS6Yd02rk0dXP26WudYByhWhDBuh9CTtoYzSKVe98Me1DAChDB2h9CSkUAIojFCGjVB6QiiB8kEow0YoPSGUQPkglGEjlJ7YUNbV1Tl3LABhOHLkCKEMHKH05JOf/KTZce666y7nzgUgHE1NTYQyYITSk49//ONmx7nhhhucOxaAcOjMke7vH/zgB52BtFzHCiQfofRId5zx48c7dywA4aiurjb7+4gRI5yBtFzHCSQfofToq1/9qowePdq5YwEIx9ixY+XMM8+U973vfc5AWq7jBJKPUHr0uc99zvwrU0/0u3YuAOmnj3LU/fzUU091xjHKdZxA8hFKj+wFPdOmTXPuYADST28B0/38lFNOccYxynWcQPIRSs9GjRolZ599trz22mvOnQxAuv3oRz+Sf/7nf+5x2vWEE05wHiOQfITSs89+9rPmX5u/+c1vnDsZgPRatGiR2b91X3fFMerEE0/scnxAOhDKEvjKV75iRpUvvMCDxYFQ6LnJ8847z8wa9TSaVMOHD3ceH5B8hLIE/vZv/9b8q/Pb3/42U7BAAPR7W/VKV92vP/zhDzvDGOc6NiAdCGWJnHbaaWanGjNmjNnJXDsfgHTQUym6P//d3/2dM4ouruMC0oFQltAXv/hFs3NdfPHFjCyBFNJ/5OrTtnQ//sIXvtCrKVc1ZMgQ5zEB6UAoS8zGUs9tcM4SSA89J6kzQjaSehWrK4ourmMB0oNQDgK9MVl3NqX3WDK6BJJLR5Fz586Vc8891+yzes2BK4bdYTSZfoRykOjO9qUvfcnseHpFrAbzqaeecu6oAEpPZ3z0Ga46+6P7qe6vf/VXf+WMYSGu/R/pQigHmX5vpT4T1o4w9V+tejWdhlN3UgCloxfp6P6nV6jbfVJv/+jtla1xrn0e6UMoE0Ifd6fPhrWjTACD58tf/rKZ9fnABz7gDGBvcN9kOAhlAg0dOtTsaPrddgBKpy8X6BSi+7Br30Y6EcqEev/73+/cAQEkm2t/RroRyoR7Xy/v0wIwuHRfde3DSD9CmRJ/8Rd/4dw5AQwu3Tdd+yzCQShTRqdkGWUCg4vRY3khlAAAFEAoAQAogFACAFAAoQQAoABCCQBAAYQSAIACCCUAAAUQSgAACiCUAAAUQCgBACiAUAIAUAChBACgAEIJAEABhBIAgAIIJQAABRBKAAAKIJQAABRAKAEAKIBQAgBQAKEEAKBbfyP/P1kNHHANzKbJAAAAAElFTkSuQmCC;" vertex="1" parent="1">
                    <mxGeometry x="447" y="98.00000000000001" width="191" height="320.39" as="geometry"/>
                </mxCell>
                <mxCell id="25" value="" style="rounded=0;whiteSpace=wrap;html=1;strokeColor=default;fontColor=#000000;fillColor=none;" vertex="1" parent="1">
                    <mxGeometry x="66" y="54" width="646" height="401" as="geometry"/>
                </mxCell>
            </root>
        </mxGraphModel>
    </diagram>
</mxfile>